<svg xmlns="http://www.w3.org/2000/svg" width="960" height="540" viewBox="0 0 960 540" shape-rendering="crispEdges">
  <rect width="960" height="400" fill="#a8d4ec"/>
  <rect x="80" y="60" width="120" height="28" fill="#fff"/>
  <rect x="110" y="40" width="80" height="24" fill="#fff"/>
  <rect x="640" y="50" width="140" height="30" fill="#fff"/>
  <rect x="680" y="30" width="90" height="24" fill="#fff"/>
  <rect y="320" width="960" height="80" fill="#6faf5a"/>
  <rect y="400" width="960" height="140" fill="#4a6f2e"/>
  <!-- pixel soil beds -->
  <rect x="280" y="390" width="72" height="36" fill="#6b4423"/>
  <rect x="290" y="396" width="8" height="24" fill="#54341c"/>
  <rect x="310" y="396" width="8" height="24" fill="#54341c"/>
  <rect x="380" y="390" width="72" height="36" fill="#6b4423"/>
  <rect x="480" y="390" width="72" height="36" fill="#6b4423"/>
  <!-- crops -->
  <rect x="304" y="340" width="16" height="56" fill="#3d8b4a"/>
  <rect x="288" y="320" width="48" height="36" fill="#e8c35a"/>
  <rect x="404" y="330" width="24" height="64" fill="#dfe8a8"/>
  <rect x="412" y="370" width="12" height="28" fill="#286434"/>
  <rect x="508" y="350" width="12" height="44" fill="#286434"/>
  <rect x="496" y="330" width="20" height="20" fill="#c23b5a"/>
  <rect x="520" y="336" width="20" height="20" fill="#c23b5a"/>
  <!-- companion -->
  <rect x="620" y="340" width="56" height="56" fill="#e8b86d"/>
  <rect x="632" y="356" width="8" height="8" fill="#222"/>
  <rect x="656" y="356" width="8" height="8" fill="#222"/>
  <rect x="636" y="384" width="40" height="10" fill="#4a58e0"/>
  <!-- fence -->
  <rect x="250" y="360" width="10" height="70" fill="#8b5a2b"/>
  <rect x="570" y="360" width="10" height="70" fill="#8b5a2b"/>
  <rect x="250" y="370" width="330" height="8" fill="#8b5a2b"/>
  <rect x="250" y="400" width="330" height="8" fill="#8b5a2b"/>
  <text x="480" y="500" text-anchor="middle" font-family="ui-rounded, system-ui, sans-serif" font-size="18" fill="#2a3a22">Pixel farm · grown from focus</text>
</svg>
